{"glyphs":{"0":{"ha":475,"x_min":0,"x_max":441,"o":"m 237 712 l 203 712 l 203 203 l 237 203 l 237 712 m 441 916 l 441 0 l 0 0 l 0 916 l 441 916 z "},"1":{"ha":237,"x_min":0,"x_max":203,"o":"m 203 0 l 0 0 l 0 916 l 203 916 l 203 0 z "},"2":{"ha":475,"x_min":0,"x_max":441,"o":"m 237 712 l 0 712 l 0 916 l 441 916 l 441 475 l 203 475 l 203 203 l 237 203 l 237 441 l 441 441 l 441 0 l 0 0 l 0 678 l 237 678 l 237 712 z "},"3":{"ha":475,"x_min":0,"x_max":441,"o":"m 0 441 l 203 441 l 203 203 l 237 203 l 237 475 l 0 475 l 0 678 l 237 678 l 237 712 l 0 712 l 0 916 l 441 916 l 441 0 l 0 0 l 0 441 z "},"4":{"ha":475,"x_min":0,"x_max":441,"o":"m 0 916 l 203 916 l 203 441 l 237 441 l 237 916 l 441 916 l 441 -203 l 237 0 l 237 237 l 0 237 l 0 916 z "},"5":{"ha":475,"x_min":0,"x_max":441,"o":"m 441 916 l 441 712 l 203 712 l 203 678 l 441 678 l 441 0 l 0 0 l 0 441 l 203 441 l 203 203 l 237 203 l 237 475 l 0 475 l 0 916 l 441 916 z "},"6":{"ha":475,"x_min":0,"x_max":441,"o":"m 441 916 l 441 712 l 203 712 l 203 678 l 441 678 l 441 0 l 0 0 l 0 916 l 441 916 m 203 203 l 237 203 l 237 475 l 203 475 l 203 203 z "},"7":{"ha":475,"x_min":0,"x_max":441,"o":"m 237 712 l 0 712 l 0 916 l 441 916 l 441 475 l 203 475 l 203 0 l 0 -203 l 0 678 l 237 678 l 237 712 z "},"8":{"ha":475,"x_min":0,"x_max":441,"o":"m 441 0 l 0 0 l 0 916 l 441 916 l 441 0 m 237 678 l 237 712 l 203 712 l 203 678 l 237 678 m 237 203 l 237 475 l 203 475 l 203 203 l 237 203 z "},"9":{"ha":475,"x_min":0,"x_max":441,"o":"m 237 712 l 203 712 l 203 678 l 237 678 l 237 712 m 441 916 l 441 0 l 0 0 l 0 441 l 203 441 l 203 203 l 237 203 l 237 475 l 0 475 l 0 916 l 441 916 z "},"\u0000":{"ha":0,"x_min":0,"x_max":0,"o":""},"\u001d":{"ha":0,"x_min":0,"x_max":0,"o":""}," ":{"ha":237,"x_min":0,"x_max":0,"o":""}," ":{"ha":237,"x_min":0,"x_max":0,"o":""},"!":{"ha":237,"x_min":0,"x_max":203,"o":"m 203 203 l 203 0 l 0 0 l 0 203 l 203 203 m 0 237 l 0 916 l 203 916 l 203 237 l 0 237 z "},"\"":{"ha":475,"x_min":0,"x_max":441,"o":"m 203 916 l 203 576 l 0 576 l 0 916 l 203 916 m 441 916 l 441 576 l 237 576 l 237 916 l 441 916 z "},"#":{"ha":543,"x_min":0,"x_max":509,"o":"m 34 441 l 34 475 l 0 475 l 0 678 l 34 678 l 34 916 l 237 916 l 237 678 l 271 678 l 271 916 l 475 916 l 475 678 l 509 678 l 509 475 l 475 475 l 475 441 l 509 441 l 509 237 l 475 237 l 475 -203 l 271 0 l 271 237 l 237 237 l 237 0 l 34 0 l 34 237 l 0 237 l 0 441 l 34 441 m 237 475 l 237 441 l 271 441 l 271 475 l 237 475 z "},"$":{"ha":475,"x_min":0,"x_max":441,"o":"m 102 916 l 102 1017 l 203 1017 l 203 916 l 237 916 l 237 1017 l 339 1017 l 339 916 l 441 916 l 441 712 l 203 712 l 203 678 l 441 678 l 441 0 l 339 0 l 339 -102 l 237 -102 l 237 0 l 203 0 l 203 -102 l 102 -102 l 102 0 l 0 0 l 0 441 l 203 441 l 203 203 l 237 203 l 237 475 l 0 475 l 0 916 l 102 916 z "},"%":{"ha":475,"x_min":0,"x_max":441,"o":"m 189 712 l 0 712 l 0 916 l 203 916 l 203 784 l 231 916 l 441 916 l 293 203 l 441 203 l 441 0 l 251 0 l 0 -203 l 189 712 z "},"&":{"ha":509,"x_min":0,"x_max":475,"o":"m 0 916 l 373 916 l 373 712 l 203 712 l 203 678 l 475 678 l 475 475 l 441 475 l 441 203 l 475 203 l 475 0 l 0 0 l 0 916 m 203 475 l 203 203 l 237 203 l 237 475 l 203 475 z "},"'":{"ha":237,"x_min":0,"x_max":203,"o":"m 203 916 l 203 576 l 0 576 l 0 916 l 203 916 z "},"(":{"ha":407,"x_min":0,"x_max":373,"o":"m 373 983 l 373 780 l 203 780 l 203 136 l 373 136 l 373 -68 l 0 -68 l 0 983 l 373 983 z "},")":{"ha":407,"x_min":0,"x_max":373,"o":"m 0 983 l 373 983 l 373 -68 l 0 -68 l 0 136 l 170 136 l 170 780 l 0 780 l 0 983 z "},"*":{"ha":237,"x_min":0,"x_max":203,"o":"m 203 916 l 203 712 l 0 712 l 0 916 l 203 916 z "},"+":{"ha":475,"x_min":0,"x_max":441,"o":"m 322 678 l 441 678 l 441 475 l 322 475 l 322 356 l 119 356 l 119 475 l 0 475 l 0 678 l 119 678 l 119 797 l 322 797 l 322 678 z "},",":{"ha":237,"x_min":0,"x_max":203,"o":"m 203 203 l 203 0 l 0 -203 l 0 203 l 203 203 z "},"-":{"ha":475,"x_min":0,"x_max":441,"o":"m 441 475 l 0 475 l 0 678 l 441 678 l 441 475 z "},"­":{"ha":475,"x_min":0,"x_max":441,"o":"m 441 475 l 0 475 l 0 678 l 441 678 l 441 475 z "},".":{"ha":237,"x_min":0,"x_max":203,"o":"m 203 203 l 203 0 l 0 0 l 0 203 l 203 203 z "},"/":{"ha":475,"x_min":0,"x_max":441,"o":"m 251 0 l 0 -203 l 231 916 l 441 916 l 251 0 z "},":":{"ha":237,"x_min":0,"x_max":203,"o":"m 203 203 l 203 0 l 0 0 l 0 203 l 203 203 m 203 678 l 203 475 l 0 475 l 0 678 l 203 678 z "},";":{"ha":237,"x_min":0,"x_max":203,"o":"m 203 203 l 203 0 l 0 -203 l 0 203 l 203 203 m 203 678 l 203 475 l 0 475 l 0 678 l 203 678 z "},";":{"ha":237,"x_min":0,"x_max":203,"o":"m 203 203 l 203 0 l 0 -203 l 0 203 l 203 203 m 203 678 l 203 475 l 0 475 l 0 678 l 203 678 z "},"<":{"ha":407,"x_min":0,"x_max":373,"o":"m 373 983 l 373 780 l 203 780 l 203 136 l 373 136 l 373 -68 l 0 -68 l 0 983 l 373 983 z "},"=":{"ha":475,"x_min":0,"x_max":441,"o":"m 441 475 l 0 475 l 0 678 l 441 678 l 441 475 m 441 237 l 0 237 l 0 441 l 441 441 l 441 237 z "},">":{"ha":407,"x_min":0,"x_max":373,"o":"m 0 983 l 373 983 l 373 -68 l 0 -68 l 0 136 l 170 136 l 170 780 l 0 780 l 0 983 z "},"?":{"ha":475,"x_min":0,"x_max":441,"o":"m 0 237 l 0 441 l 237 441 l 237 712 l 203 712 l 203 475 l 0 475 l 0 916 l 441 916 l 441 237 l 0 237 m 0 203 l 203 203 l 203 0 l 0 0 l 0 203 z "},"@":{"ha":475,"x_min":0,"x_max":441,"o":"m 203 712 l 203 678 l 237 678 l 237 712 l 203 712 m 203 203 l 441 203 l 441 0 l 0 0 l 0 916 l 441 916 l 441 237 l 203 237 l 203 203 z "},"A":{"ha":475,"x_min":0,"x_max":441,"o":"m 0 916 l 441 916 l 441 -203 l 237 0 l 237 475 l 203 475 l 203 0 l 0 0 l 0 916 m 203 712 l 203 678 l 237 678 l 237 712 l 203 712 z "},"B":{"ha":475,"x_min":0,"x_max":441,"o":"m 441 0 l 0 0 l 0 916 l 441 916 l 441 0 m 237 678 l 237 712 l 203 712 l 203 678 l 237 678 m 237 203 l 237 475 l 203 475 l 203 203 l 237 203 z "},"C":{"ha":475,"x_min":0,"x_max":441,"o":"m 441 475 l 237 475 l 237 712 l 203 712 l 203 203 l 237 203 l 237 441 l 441 441 l 441 0 l 0 0 l 0 916 l 441 916 l 441 475 z "},"D":{"ha":475,"x_min":-190,"x_max":441,"o":"m -190 0 l 14 203 l 237 203 l 237 712 l 203 712 l 203 237 l 0 237 l 0 916 l 441 916 l 441 0 l -190 0 z "},"E":{"ha":475,"x_min":0,"x_max":631,"o":"m 631 916 l 427 712 l 203 712 l 203 678 l 441 678 l 441 475 l 203 475 l 203 203 l 237 203 l 237 441 l 441 441 l 441 0 l 0 0 l 0 916 l 631 916 z "},"F":{"ha":407,"x_min":0,"x_max":563,"o":"m 563 916 l 359 712 l 203 712 l 203 678 l 373 678 l 373 475 l 203 475 l 203 0 l 0 0 l 0 916 l 563 916 z "},"G":{"ha":475,"x_min":0,"x_max":631,"o":"m 631 916 l 427 712 l 203 712 l 203 203 l 237 203 l 237 678 l 441 678 l 441 0 l 0 0 l 0 916 l 631 916 z "},"H":{"ha":475,"x_min":0,"x_max":441,"o":"m 203 475 l 203 0 l 0 0 l 0 916 l 203 916 l 203 678 l 237 678 l 237 916 l 441 916 l 441 -203 l 237 0 l 237 475 l 203 475 z "},"I":{"ha":237,"x_min":0,"x_max":203,"o":"m 203 0 l 0 0 l 0 916 l 203 916 l 203 0 z "},"J":{"ha":475,"x_min":0,"x_max":441,"o":"m 237 203 l 237 916 l 441 916 l 441 0 l 0 0 l 0 441 l 203 441 l 203 203 l 237 203 z "},"K":{"ha":475,"x_min":0,"x_max":446,"o":"m 203 115 l 203 0 l 0 0 l 0 916 l 203 916 l 203 441 l 237 441 l 237 916 l 441 916 l 441 237 l 380 237 l 446 0 l 235 0 l 203 115 z "},"L":{"ha":475,"x_min":0,"x_max":441,"o":"m 0 916 l 203 916 l 203 203 l 237 203 l 237 441 l 441 441 l 441 0 l 0 0 l 0 916 z "},"M":{"ha":712,"x_min":0,"x_max":678,"o":"m 678 -203 l 475 0 l 475 712 l 441 712 l 441 0 l 237 0 l 237 712 l 203 712 l 203 0 l 0 0 l 0 916 l 678 916 l 678 -203 z "},"N":{"ha":475,"x_min":0,"x_max":441,"o":"m 203 712 l 203 0 l 0 0 l 0 916 l 441 916 l 441 -203 l 237 0 l 237 712 l 203 712 z "},"O":{"ha":475,"x_min":0,"x_max":441,"o":"m 237 712 l 203 712 l 203 203 l 237 203 l 237 712 m 441 916 l 441 0 l 0 0 l 0 916 l 441 916 z "},"P":{"ha":475,"x_min":0,"x_max":441,"o":"m 237 712 l 203 712 l 203 441 l 237 441 l 237 712 m 441 916 l 441 237 l 203 237 l 203 0 l 0 0 l 0 916 l 441 916 z "},"Q":{"ha":475,"x_min":0,"x_max":441,"o":"m 203 203 l 237 203 l 237 712 l 203 712 l 203 203 m 237 0 l 0 0 l 0 916 l 441 916 l 441 -34 l 237 -237 l 237 0 z "},"R":{"ha":475,"x_min":0,"x_max":446,"o":"m 237 712 l 203 712 l 203 441 l 237 441 l 237 712 m 441 916 l 441 237 l 380 237 l 446 0 l 235 0 l 203 115 l 203 0 l 0 0 l 0 916 l 441 916 z "},"S":{"ha":475,"x_min":0,"x_max":631,"o":"m 631 916 l 427 712 l 203 712 l 203 678 l 441 678 l 441 0 l 0 0 l 0 441 l 203 441 l 203 203 l 237 203 l 237 475 l 0 475 l 0 916 l 631 916 z "},"T":{"ha":339,"x_min":0,"x_max":495,"o":"m 495 916 l 305 726 l 305 -203 l 102 0 l 102 712 l 0 712 l 0 916 l 495 916 z "},"U":{"ha":475,"x_min":0,"x_max":441,"o":"m 0 916 l 203 916 l 203 203 l 237 203 l 237 916 l 441 916 l 441 0 l 0 0 l 0 916 z "},"V":{"ha":475,"x_min":0,"x_max":441,"o":"m 0 916 l 203 916 l 203 201 l 237 206 l 237 916 l 441 916 l 441 34 l 0 -34 l 0 916 z "},"W":{"ha":712,"x_min":0,"x_max":678,"o":"m 0 916 l 203 916 l 203 203 l 237 203 l 237 916 l 441 916 l 441 203 l 475 203 l 475 916 l 678 916 l 678 0 l 0 0 l 0 916 z "},"X":{"ha":475,"x_min":0,"x_max":446,"o":"m 237 441 l 237 916 l 441 916 l 441 237 l 380 237 l 446 0 l 235 0 l 223 44 l 211 0 l 0 0 l 66 237 l 0 237 l 0 916 l 203 916 l 203 441 l 237 441 z "},"Y":{"ha":475,"x_min":0,"x_max":441,"o":"m 0 916 l 203 916 l 203 441 l 237 441 l 237 916 l 441 916 l 441 0 l 0 0 l 0 203 l 237 203 l 237 237 l 0 237 l 0 916 z "},"Z":{"ha":475,"x_min":0,"x_max":441,"o":"m 237 712 l 0 712 l 0 916 l 441 916 l 441 475 l 203 475 l 203 203 l 237 203 l 237 441 l 441 441 l 441 0 l 0 0 l 0 678 l 237 678 l 237 712 z "},"[":{"ha":407,"x_min":0,"x_max":373,"o":"m 373 983 l 373 780 l 203 780 l 203 136 l 373 136 l 373 -68 l 0 -68 l 0 983 l 373 983 z "},"\\":{"ha":475,"x_min":0,"x_max":441,"o":"m 190 0 l 0 916 l 210 916 l 441 -203 l 190 0 z "},"]":{"ha":407,"x_min":0,"x_max":373,"o":"m 0 983 l 373 983 l 373 -68 l 0 -68 l 0 136 l 170 136 l 170 780 l 0 780 l 0 983 z "},"^":{"ha":237,"x_min":0,"x_max":203,"o":"m 203 916 l 203 576 l 0 576 l 0 916 l 203 916 z "},"_":{"ha":475,"x_min":0,"x_max":441,"o":"m 441 0 l 0 0 l 0 203 l 441 203 l 441 0 z "},"`":{"ha":237,"x_min":0,"x_max":203,"o":"m 203 916 l 203 576 l 0 576 l 0 916 l 203 916 z "},"a":{"ha":475,"x_min":0,"x_max":441,"o":"m 237 475 l 203 475 l 203 441 l 237 441 l 237 475 m 441 678 l 441 0 l 237 0 l 237 237 l 203 237 l 203 0 l 0 0 l 0 678 l 441 678 z "},"b":{"ha":475,"x_min":0,"x_max":441,"o":"m 237 475 l 203 475 l 203 203 l 237 203 l 237 475 m 203 678 l 441 678 l 441 0 l 0 0 l 0 712 l 203 916 l 203 678 z "},"c":{"ha":475,"x_min":0,"x_max":441,"o":"m 441 356 l 237 356 l 237 475 l 203 475 l 203 203 l 237 203 l 237 322 l 441 322 l 441 0 l 0 0 l 0 678 l 441 678 l 441 356 z "},"d":{"ha":475,"x_min":0,"x_max":441,"o":"m 237 678 l 237 712 l 441 916 l 441 0 l 0 0 l 0 678 l 237 678 m 237 475 l 203 475 l 203 203 l 237 203 l 237 475 z "},"e":{"ha":475,"x_min":0,"x_max":441,"o":"m 237 475 l 203 475 l 203 441 l 237 441 l 237 475 m 441 678 l 441 237 l 203 237 l 203 203 l 441 203 l 441 0 l 0 0 l 0 678 l 441 678 z "},"f":{"ha":475,"x_min":0,"x_max":441,"o":"m 441 678 l 441 475 l 203 475 l 203 441 l 441 441 l 441 237 l 203 237 l 203 0 l 0 0 l 0 678 l 441 678 z "},"g":{"ha":475,"x_min":0,"x_max":441,"o":"m 237 203 l 237 441 l 441 441 l 441 0 l 0 0 l 0 678 l 441 678 l 441 475 l 203 475 l 203 203 l 237 203 z "},"h":{"ha":475,"x_min":0,"x_max":441,"o":"m 441 0 l 237 0 l 237 475 l 203 475 l 203 0 l 0 0 l 0 712 l 203 916 l 203 678 l 441 678 l 441 0 z "},"i":{"ha":237,"x_min":0,"x_max":203,"o":"m 203 0 l 0 0 l 0 678 l 203 678 l 203 0 m 0 712 l 203 916 l 203 712 l 0 712 z "},"j":{"ha":237,"x_min":-203,"x_max":203,"o":"m 0 712 l 203 916 l 203 712 l 0 712 m 0 -34 l 0 678 l 203 678 l 203 -271 l 0 -271 l -203 -34 l 0 -34 z "},"k":{"ha":475,"x_min":0,"x_max":446,"o":"m 203 115 l 203 0 l 0 0 l 0 712 l 203 916 l 203 441 l 237 441 l 237 678 l 441 678 l 441 237 l 380 237 l 446 0 l 235 0 l 203 115 z "},"l":{"ha":237,"x_min":0,"x_max":203,"o":"m 203 0 l 0 0 l 0 712 l 203 916 l 203 0 z "},"m":{"ha":712,"x_min":0,"x_max":678,"o":"m 678 0 l 475 0 l 475 475 l 441 475 l 441 0 l 237 0 l 237 475 l 203 475 l 203 0 l 0 0 l 0 678 l 678 678 l 678 0 z "},"n":{"ha":475,"x_min":0,"x_max":441,"o":"m 203 475 l 203 0 l 0 0 l 0 678 l 441 678 l 441 0 l 237 0 l 237 475 l 203 475 z "},"o":{"ha":475,"x_min":0,"x_max":441,"o":"m 237 475 l 203 475 l 203 203 l 237 203 l 237 475 m 441 678 l 441 0 l 0 0 l 0 678 l 441 678 z "},"p":{"ha":475,"x_min":0,"x_max":441,"o":"m 203 0 l 203 -34 l 0 -237 l 0 678 l 441 678 l 441 0 l 203 0 m 203 203 l 237 203 l 237 475 l 203 475 l 203 203 z "},"q":{"ha":475,"x_min":0,"x_max":441,"o":"m 203 203 l 237 203 l 237 475 l 203 475 l 203 203 m 237 0 l 0 0 l 0 678 l 441 678 l 441 -34 l 237 -237 l 237 0 z "},"r":{"ha":475,"x_min":0,"x_max":446,"o":"m 237 475 l 203 475 l 203 441 l 237 441 l 237 475 m 441 678 l 441 237 l 380 237 l 446 0 l 235 0 l 203 115 l 203 0 l 0 0 l 0 678 l 441 678 z "},"s":{"ha":475,"x_min":0,"x_max":441,"o":"m 441 678 l 441 475 l 203 475 l 203 441 l 441 441 l 441 0 l 0 0 l 0 203 l 237 203 l 237 237 l 0 237 l 0 678 l 441 678 z "},"t":{"ha":475,"x_min":0,"x_max":441,"o":"m 237 203 l 237 441 l 441 441 l 441 0 l 0 0 l 0 712 l 203 916 l 203 678 l 441 678 l 441 475 l 203 475 l 203 203 l 237 203 z "},"u":{"ha":475,"x_min":0,"x_max":441,"o":"m 0 678 l 203 678 l 203 203 l 237 203 l 237 678 l 441 678 l 441 0 l 0 0 l 0 678 z "},"v":{"ha":475,"x_min":0,"x_max":441,"o":"m 0 678 l 203 678 l 203 201 l 237 206 l 237 678 l 441 678 l 441 34 l 0 -34 l 0 678 z "},"w":{"ha":712,"x_min":0,"x_max":678,"o":"m 0 678 l 203 678 l 203 203 l 237 203 l 237 678 l 441 678 l 441 203 l 475 203 l 475 678 l 678 678 l 678 0 l 0 0 l 0 678 z "},"x":{"ha":475,"x_min":0,"x_max":446,"o":"m 237 441 l 237 678 l 441 678 l 441 237 l 380 237 l 446 0 l 235 0 l 223 44 l 211 0 l 0 0 l 66 237 l 0 237 l 0 678 l 203 678 l 203 441 l 237 441 z "},"y":{"ha":475,"x_min":0,"x_max":441,"o":"m 0 678 l 203 678 l 203 203 l 237 203 l 237 678 l 441 678 l 441 -34 l 237 -237 l 237 0 l 0 0 l 0 678 z "},"z":{"ha":475,"x_min":0,"x_max":441,"o":"m 237 475 l 0 475 l 0 678 l 441 678 l 441 237 l 203 237 l 203 203 l 441 203 l 441 0 l 0 0 l 0 441 l 237 441 l 237 475 z "},"{":{"ha":407,"x_min":0,"x_max":373,"o":"m 373 983 l 373 780 l 203 780 l 203 136 l 373 136 l 373 -68 l 0 -68 l 0 983 l 373 983 z "},"|":{"ha":237,"x_min":0,"x_max":203,"o":"m 203 0 l 0 0 l 0 916 l 203 916 l 203 0 z "},"}":{"ha":407,"x_min":0,"x_max":373,"o":"m 0 983 l 373 983 l 373 -68 l 0 -68 l 0 136 l 170 136 l 170 780 l 0 780 l 0 983 z "},"~":{"ha":475,"x_min":0,"x_max":441,"o":"m 441 475 l 0 475 l 0 678 l 441 678 l 441 475 z "}}}
